<?xml version="1.0" encoding="UTF-8" ?>
<!DOCTYPE svg PUBLIC "-//W3C//DTD SVG 1.1//EN" "http://www.w3.org/Graphics/SVG/1.1/DTD/svg11.dtd">
<svg width="75pt" height="79pt" viewBox="0 0 75 79" version="1.1" xmlns="http://www.w3.org/2000/svg">
<g id="#ed335dff">
<path fill="#ed335d" opacity="1.00" d=" M 10.58 0.91 C 16.76 0.99 22.94 1.02 29.12 1.08 C 26.76 7.47 23.86 13.86 23.53 20.76 C 23.42 27.17 28.16 31.60 32.29 35.74 C 38.94 24.19 45.69 12.70 52.37 1.17 C 59.06 1.13 65.74 1.12 72.42 1.14 C 64.31 15.16 56.08 29.12 48.35 43.35 C 54.49 47.86 60.85 52.46 64.95 59.03 C 69.22 65.15 72.09 72.04 74.65 79.00 L 57.12 79.00 C 52.85 73.00 49.32 66.27 43.59 61.49 C 35.52 55.61 26.24 51.82 17.54 47.02 C 17.98 58.17 19.87 69.49 26.08 79.00 L 6.08 79.00 C -4.06 53.83 1.53 25.52 10.58 0.91 Z" />
</g>
</svg>
